<svg version="1.1" id="Layer_1" xmlns="http://www.w3.org/2000/svg" xmlns:xlink="http://www.w3.org/1999/xlink" x="0px" y="0px"
	 width="100%" viewBox="0 0 150 113" enable-background="new 0 0 150 113" xml:space="preserve">
<path fill="#ffffff" opacity="0.000000" stroke="none" 
	d="
M90.000000,114.000000 
	C60.000000,114.000000 30.500000,114.000000 1.000000,114.000000 
	C1.000000,76.333336 1.000000,38.666668 1.000000,1.000000 
	C51.000000,1.000000 101.000000,1.000000 151.000000,1.000000 
	C151.000000,38.666668 151.000000,76.333336 151.000000,114.000000 
	C130.833328,114.000000 110.666664,114.000000 90.000000,114.000000 
M105.659157,23.244007 
	C104.435776,23.099396 103.212395,22.954782 101.504555,22.292013 
	C100.329048,22.137327 99.153549,21.982641 97.801712,21.578175 
	C97.507507,21.390100 97.253380,21.446636 96.237610,21.809280 
	C93.812698,21.488621 91.387787,21.167961 88.575920,20.439354 
	C87.737823,20.547918 86.899719,20.656483 85.197762,20.889614 
	C83.453712,20.871986 81.709656,20.854359 79.642654,20.473909 
	C79.101692,20.616703 78.560730,20.759497 77.275063,21.044550 
	C76.017227,21.088610 74.759384,21.132671 72.816452,21.117250 
	C72.220284,21.374531 71.624123,21.631809 70.396576,22.061098 
	C69.746956,22.095173 69.097343,22.129248 67.671700,22.082649 
	C66.791641,22.439505 65.911583,22.796362 64.489594,23.601147 
	C50.635757,28.023266 39.712036,36.471016 30.566162,47.624969 
	C42.079464,62.431435 56.778294,70.587769 74.728348,72.995468 
	C85.426086,74.430382 96.076462,74.612122 107.353111,71.197960 
	C120.655602,68.107651 132.529999,62.077129 143.099396,53.514610 
	C149.721252,48.150070 149.602417,46.324200 142.947632,41.020615 
	C132.819717,32.949108 121.172020,27.891769 108.466492,23.424883 
	C107.775818,23.342342 107.085144,23.259800 105.659157,23.244007 
M9.490536,71.007393 
	C16.477484,63.324512 23.464432,55.641632 30.500555,47.904678 
	C22.309994,39.216263 16.164387,29.820627 6.318802,23.769365 
	C17.093586,40.930180 15.269479,57.386303 4.380020,73.677544 
	C4.794098,73.799477 5.208177,73.921417 5.622255,74.043350 
	C6.734243,73.189316 7.846231,72.335274 9.490536,71.007393 
M118.931686,88.574371 
	C124.120308,94.198860 129.259689,99.869949 134.518951,105.427574 
	C137.031845,108.083008 139.921280,107.822601 142.482224,105.523941 
	C144.739182,103.498131 145.344147,100.885193 143.107346,98.488235 
	C135.067337,89.872566 126.915916,81.360847 118.645905,72.640404 
	C115.925400,75.126450 113.507439,77.336021 110.818939,79.792816 
	C113.519463,82.723686 115.981102,85.395302 118.931686,88.574371 
M44.755138,28.233137 
	C47.480770,26.081470 50.271572,24.006809 52.920795,21.764856 
	C64.620949,11.863397 77.657799,9.571883 92.113525,14.560308 
	C97.179100,16.308350 102.359024,17.725035 107.486732,19.293032 
	C107.616112,18.856831 107.745483,18.420631 107.874855,17.984430 
	C97.413895,8.257824 84.788727,4.931990 70.826172,7.170127 
	C56.068241,9.535758 45.647556,18.089071 39.576550,32.000450 
	C41.111916,30.889883 42.647282,29.779318 44.755138,28.233137 
M80.403610,87.189552 
	C89.887962,86.830872 98.231606,83.575005 105.441422,77.153244 
	C101.471313,77.110573 97.491676,77.285622 93.949821,78.621437 
	C78.535347,84.435051 64.750755,82.185326 52.180702,71.454353 
	C48.660297,68.449005 44.513603,66.177284 40.654198,63.569038 
	C40.403316,63.995110 40.152439,64.421181 39.901558,64.847252 
	C48.860771,79.556389 61.837532,87.363083 80.403610,87.189552 
M37.559189,34.326866 
	C37.775906,34.037022 37.992619,33.747177 38.209335,33.457333 
	C37.908283,33.643803 37.607235,33.830269 37.559189,34.326866 
z"/>
<path fill="#5895C5" opacity="1.000000" stroke="none" 
	d="
M106.487389,71.076057 
	C96.076462,74.612122 85.426086,74.430382 74.728348,72.995468 
	C56.778294,70.587769 42.079464,62.431435 30.566162,47.624969 
	C39.712036,36.471016 50.635757,28.023266 65.122681,23.368412 
	C66.653084,22.811560 67.550407,22.487440 68.447723,22.163322 
	C69.097343,22.129248 69.746956,22.095173 71.044785,22.003473 
	C72.295837,21.689476 72.898697,21.433105 73.501549,21.176733 
	C74.759384,21.132671 76.017227,21.088610 77.971725,21.026299 
	C79.100792,20.950943 79.533203,20.893837 79.965607,20.836731 
	C81.709656,20.854359 83.453712,20.871986 85.986786,20.906540 
	C87.504829,20.898079 88.233849,20.872690 88.962875,20.847301 
	C91.387787,21.167961 93.812698,21.488621 96.869019,21.846508 
	C97.500420,21.883736 97.978043,21.827953 97.978043,21.827953 
	C99.153549,21.982641 100.329048,22.137327 101.841370,22.885809 
	C108.045700,27.953070 112.186768,33.549965 113.920456,40.860180 
	C116.618713,52.237568 113.740967,62.179218 106.487389,71.076057 
M93.124596,40.990238 
	C86.951843,40.990238 80.779083,40.990238 73.967087,40.990238 
	C76.830879,47.355579 80.884941,51.337551 86.021965,53.746738 
	C89.832703,55.533924 92.003792,57.378792 89.630760,63.075127 
	C92.940674,61.731594 94.947151,60.917141 97.557144,59.732204 
	C101.802818,56.488300 106.048492,53.244396 110.908150,49.865307 
	C110.679169,48.957970 110.694107,47.441521 110.183632,47.237103 
	C104.816010,45.087612 99.364418,43.147789 93.124596,40.990238 
M58.506153,39.175018 
	C61.080143,36.951752 63.654133,34.728485 66.505859,32.265327 
	C60.111553,31.165426 53.640541,32.385712 50.789883,37.369038 
	C47.748775,42.685284 50.065449,49.146908 53.459274,54.750595 
	C55.096085,49.476223 56.597733,44.637386 58.506153,39.175018 
z"/>
<path fill="#193548" opacity="1.000000" stroke="none" 
	d="
M106.920250,71.137009 
	C113.740967,62.179218 116.618713,52.237568 113.920456,40.860180 
	C112.186768,33.549965 108.045700,27.953070 102.083595,23.144888 
	C103.212395,22.954782 104.435776,23.099396 106.285324,23.454716 
	C107.603729,23.742863 108.295952,23.820303 108.988182,23.897741 
	C121.172020,27.891769 132.819717,32.949108 142.947632,41.020615 
	C149.602417,46.324200 149.721252,48.150070 143.099396,53.514610 
	C132.529999,62.077129 120.655602,68.107651 106.920250,71.137009 
M125.674171,41.410740 
	C125.911560,43.471329 125.711021,45.767509 126.624031,47.464626 
	C126.943329,48.058132 130.464417,47.747356 131.663971,46.781818 
	C132.570831,46.051846 132.776978,42.570602 132.128983,42.161724 
	C130.536163,41.156685 128.270493,41.218021 125.674171,41.410740 
z"/>
<path fill="#1C374A" opacity="1.000000" stroke="none" 
	d="
M9.224377,71.244316 
	C7.846231,72.335274 6.734243,73.189316 5.622255,74.043350 
	C5.208177,73.921417 4.794098,73.799477 4.380020,73.677544 
	C15.269479,57.386303 17.093586,40.930180 6.318802,23.769365 
	C16.164387,29.820627 22.309994,39.216263 30.500555,47.904678 
	C23.464432,55.641632 16.477484,63.324512 9.224377,71.244316 
z"/>
<path fill="#1A3649" opacity="1.000000" stroke="none" 
	d="
M118.687210,88.320641 
	C115.981102,85.395302 113.519463,82.723686 110.818939,79.792816 
	C113.507439,77.336021 115.925400,75.126450 118.645905,72.640404 
	C126.915916,81.360847 135.067337,89.872566 143.107346,98.488235 
	C145.344147,100.885193 144.739182,103.498131 142.482224,105.523941 
	C139.921280,107.822601 137.031845,108.083008 134.518951,105.427574 
	C129.259689,99.869949 124.120308,94.198860 118.687210,88.320641 
z"/>
<path fill="#1F3A4C" opacity="1.000000" stroke="none" 
	d="
M44.468895,28.450945 
	C42.647282,29.779318 41.111916,30.889883 39.576550,32.000450 
	C45.647556,18.089071 56.068241,9.535758 70.826172,7.170127 
	C84.788727,4.931990 97.413895,8.257824 107.874855,17.984430 
	C107.745483,18.420631 107.616112,18.856831 107.486732,19.293032 
	C102.359024,17.725035 97.179100,16.308350 92.113525,14.560308 
	C77.657799,9.571883 64.620949,11.863397 52.920795,21.764856 
	C50.271572,24.006809 47.480770,26.081470 44.468895,28.450945 
z"/>
<path fill="#203A4D" opacity="1.000000" stroke="none" 
	d="
M79.926727,87.197556 
	C61.837532,87.363083 48.860771,79.556389 39.901558,64.847252 
	C40.152439,64.421181 40.403316,63.995110 40.654198,63.569038 
	C44.513603,66.177284 48.660297,68.449005 52.180702,71.454353 
	C64.750755,82.185326 78.535347,84.435051 93.949821,78.621437 
	C97.491676,77.285622 101.471313,77.110573 105.441422,77.153244 
	C98.231606,83.575005 89.887962,86.830872 79.926727,87.197556 
z"/>
<path fill="#DCE3EA" opacity="1.000000" stroke="none" 
	d="
M68.059708,22.122986 
	C67.550407,22.487440 66.653084,22.811560 65.393646,23.144447 
	C65.911583,22.796362 66.791641,22.439505 68.059708,22.122986 
z"/>
<path fill="#DCE3EA" opacity="1.000000" stroke="none" 
	d="
M37.432686,34.171803 
	C37.607235,33.830269 37.908283,33.643803 38.209335,33.457333 
	C37.992619,33.747177 37.775906,34.037022 37.432686,34.171803 
z"/>
<path fill="#DCE3EA" opacity="1.000000" stroke="none" 
	d="
M88.769394,20.643328 
	C88.233849,20.872690 87.504829,20.898079 86.418716,20.844257 
	C86.899719,20.656483 87.737823,20.547918 88.769394,20.643328 
z"/>
<path fill="#DCE3EA" opacity="1.000000" stroke="none" 
	d="
M108.727341,23.661312 
	C108.295952,23.820303 107.603729,23.742863 106.652985,23.421341 
	C107.085144,23.259800 107.775818,23.342342 108.727341,23.661312 
z"/>
<path fill="#DCE3EA" opacity="1.000000" stroke="none" 
	d="
M73.158997,21.146992 
	C72.898697,21.433105 72.295837,21.689476 71.360474,21.917469 
	C71.624123,21.631809 72.220284,21.374531 73.158997,21.146992 
z"/>
<path fill="#DCE3EA" opacity="1.000000" stroke="none" 
	d="
M79.804131,20.655319 
	C79.533203,20.893837 79.100792,20.950943 78.344078,20.955170 
	C78.560730,20.759497 79.101692,20.616703 79.804131,20.655319 
z"/>
<path fill="#DCE3EA" opacity="1.000000" stroke="none" 
	d="
M97.889877,21.703064 
	C97.978043,21.827953 97.500420,21.883736 97.269882,21.815760 
	C97.253380,21.446636 97.507507,21.390100 97.889877,21.703064 
z"/>
<path fill="#213E51" opacity="1.000000" stroke="none" 
	d="
M110.294167,50.000488 
	C106.048492,53.244396 101.802818,56.488300 96.861763,59.866520 
	C95.124756,59.855560 94.083138,59.710285 92.058617,59.427929 
	C93.807693,57.556297 94.942635,56.341820 95.853912,55.366688 
	C91.775688,53.527702 87.628471,51.657604 83.052452,49.594147 
	C85.040840,48.667767 86.358887,48.053696 88.288551,47.154678 
	C84.209007,46.176674 79.435402,49.254074 78.025024,42.434433 
	C82.945816,42.434433 87.660347,42.434433 92.698006,42.650642 
	C98.778809,45.244736 104.536484,47.622612 110.294167,50.000488 
z"/>
<path fill="#DBE4EE" opacity="1.000000" stroke="none" 
	d="
M58.302765,39.486786 
	C56.597733,44.637386 55.096085,49.476223 53.459274,54.750595 
	C50.065449,49.146908 47.748775,42.685284 50.789883,37.369038 
	C53.640541,32.385712 60.111553,31.165426 66.505859,32.265327 
	C63.654133,34.728485 61.080143,36.951752 58.302765,39.486786 
z"/>
<path fill="#C9D9E6" opacity="1.000000" stroke="none" 
	d="
M92.374886,42.434433 
	C87.660347,42.434433 82.945816,42.434433 78.025024,42.434433 
	C79.435402,49.254074 84.209007,46.176674 88.288551,47.154678 
	C86.358887,48.053696 85.040840,48.667767 83.052452,49.594147 
	C87.628471,51.657604 91.775688,53.527702 95.853912,55.366688 
	C94.942635,56.341820 93.807693,57.556297 92.058617,59.427929 
	C94.083138,59.710285 95.124756,59.855560 96.560005,60.051765 
	C94.947151,60.917141 92.940674,61.731594 89.630760,63.075127 
	C92.003792,57.378792 89.832703,55.533924 86.021965,53.746738 
	C80.884941,51.337551 76.830879,47.355579 73.967087,40.990238 
	C80.779083,40.990238 86.951843,40.990238 93.310303,41.325417 
	C93.122299,41.918541 92.748589,42.176487 92.374886,42.434433 
z"/>
<path fill="#C3D2E0" opacity="1.000000" stroke="none" 
	d="
M92.698006,42.650642 
	C92.748589,42.176487 93.122299,41.918541 93.716019,41.405319 
	C99.364418,43.147789 104.816010,45.087612 110.183632,47.237103 
	C110.694107,47.441521 110.679169,48.957970 110.601158,49.932899 
	C104.536484,47.622612 98.778809,45.244736 92.698006,42.650642 
z"/>
<path fill="#DAE0E8" opacity="1.000000" stroke="none" 
	d="
M125.974808,41.130600 
	C128.270493,41.218021 130.536163,41.156685 132.128983,42.161724 
	C132.776978,42.570602 132.570831,46.051846 131.663971,46.781818 
	C130.464417,47.747356 126.943329,48.058132 126.624031,47.464626 
	C125.711021,45.767509 125.911560,43.471329 125.974808,41.130600 
z"/>
</svg>